<?xml version="1.0" encoding="UTF-8" standalone="no"?>
<svg
   width="428"
   height="480"
   viewBox="0 0 428 480"
   version="1.1"
   id="svg1796"
   sodipodi:docname="cut.svg"
   inkscape:version="1.2.1 (9c6d41e410, 2022-07-14)"
   xmlns:inkscape="http://www.inkscape.org/namespaces/inkscape"
   xmlns:sodipodi="http://sodipodi.sourceforge.net/DTD/sodipodi-0.dtd"
   xmlns="http://www.w3.org/2000/svg"
   xmlns:svg="http://www.w3.org/2000/svg"
   xmlns:rdf="http://www.w3.org/1999/02/22-rdf-syntax-ns#"
   xmlns:cc="http://creativecommons.org/ns#"
   xmlns:dc="http://purl.org/dc/elements/1.1/">
  <defs
     id="defs1800" />
  <sodipodi:namedview
     id="namedview1798"
     pagecolor="#ffffff"
     bordercolor="#000000"
     borderopacity="0.25"
     inkscape:showpageshadow="2"
     inkscape:pageopacity="0.0"
     inkscape:pagecheckerboard="0"
     inkscape:deskcolor="#d1d1d1"
     showgrid="true"
     inkscape:zoom="1.4142136"
     inkscape:cx="174.65537"
     inkscape:cy="216.37467"
     inkscape:window-width="1920"
     inkscape:window-height="1027"
     inkscape:window-x="-8"
     inkscape:window-y="-8"
     inkscape:window-maximized="1"
     inkscape:current-layer="svg1796">
    <inkscape:grid
       type="xygrid"
       id="grid1929"
       spacingx="2"
       spacingy="2" />
  </sodipodi:namedview>
  <title
     id="title1792">cancel</title>
  <metadata
     id="metadata1921">
    <rdf:RDF>
      <cc:Work
         rdf:about="">
        <dc:title>cancel</dc:title>
      </cc:Work>
    </rdf:RDF>
  </metadata>
  <circle
     style="display:none;fill:#e6e6e6;stroke-width:10"
     id="path1989"
     cx="214"
     cy="235"
     r="195"
     sodipodi:insensitive="true" />
  <path
     id="rect4294"
     style="fill:#000000;fill-opacity:1;stroke:none;stroke-width:40;stroke-dasharray:none"
     d="m 146.29786,50.734375 -33.96876,21.123047 78.11915,125.617188 -4.07032,6.54492 A 100,100 0 0 0 57.411132,240.97852 100,100 0 0 0 89.520507,378.70703 100,100 0 0 0 117.58691,390.38281 L 214.00098,235.3457 310.41309,390.38281 A 100,100 0 0 0 338.4795,378.70703 100,100 0 0 0 370.58887,240.97852 100,100 0 0 0 241.62207,204.01953 L 237.55176,197.47461 315.6709,71.857422 281.70215,50.734375 214.00098,159.60156 Z m -8.69922,183.253905 a 60,60 0 0 1 27.47265,4.29297 L 102.64355,338.66797 A 60,60 0 0 1 91.377929,262.10156 60,60 0 0 1 137.59864,233.98828 Z m 152.80273,0 a 60,60 0 0 1 46.2207,28.11328 60,60 0 0 1 -11.26562,76.56641 L 262.92871,238.28125 a 60,60 0 0 1 27.47266,-4.29297 z" />
</svg>
